<mxfile host="app.diagrams.net" modified="2021-05-31T07:19:40.248Z" agent="5.0 (Windows NT 10.0; WOW64) AppleWebKit/537.36 (KHTML, like Gecko) Chrome/75.0.0.8793 Safari/537.36" etag="gbElQyaQvJnR4vOmvJg_" version="14.7.3" type="github">
  <diagram id="6a731a19-8d31-9384-78a2-239565b7b9f0" name="Page-1">
    <mxGraphModel dx="1704" dy="-614" grid="1" gridSize="10" guides="1" tooltips="1" connect="1" arrows="1" fold="1" page="1" pageScale="1" pageWidth="1169" pageHeight="827" background="none" math="0" shadow="0">
      <root>
        <mxCell id="0" />
        <mxCell id="1" parent="0" />
        <mxCell id="Xf4Q5aO3znnxccDLoNML-143" value="" style="strokeColor=#FFFFFF;fillColor=#BAC8D3;fontSize=18;strokeWidth=2;fontFamily=Helvetica;html=1;opacity=90;" vertex="1" parent="1">
          <mxGeometry x="1537.6666666666665" y="2723.5" width="646.6666666666666" height="100" as="geometry" />
        </mxCell>
        <mxCell id="Xf4Q5aO3znnxccDLoNML-144" value="" style="strokeColor=#FFFFFF;fillColor=#BAC8D3;fontSize=18;strokeWidth=2;fontFamily=Helvetica;html=1;opacity=90;" vertex="1" parent="1">
          <mxGeometry x="244.33" y="2723.5" width="646.6666666666666" height="100" as="geometry" />
        </mxCell>
        <mxCell id="Xf4Q5aO3znnxccDLoNML-145" value="" style="strokeColor=#FFFFFF;fillColor=#BAC8D3;fontSize=18;strokeWidth=2;fontFamily=Helvetica;html=1;opacity=90;" vertex="1" parent="1">
          <mxGeometry x="890.9966666666667" y="2723.5" width="646.6666666666666" height="100" as="geometry" />
        </mxCell>
        <mxCell id="Xf4Q5aO3znnxccDLoNML-146" value="" style="strokeColor=#FFFFFF;fillColor=#BAC8D3;fontSize=18;strokeWidth=2;fontFamily=Helvetica;html=1;opacity=60;" vertex="1" parent="1">
          <mxGeometry x="890.67" y="2423.5" width="646.6666666666666" height="100" as="geometry" />
        </mxCell>
        <mxCell id="Xf4Q5aO3znnxccDLoNML-147" value="赎回" style="strokeColor=#BAC8D3;fillColor=#23445D;fontSize=24;strokeWidth=2;fontFamily=Helvetica;html=1;fontColor=#FFFFFF;fontStyle=0;spacingBottom=8;spacingRight=0;spacingLeft=83;" vertex="1" parent="1">
          <mxGeometry x="150" y="1920" width="2030" height="80" as="geometry" />
        </mxCell>
        <mxCell id="Xf4Q5aO3znnxccDLoNML-148" value="v 1.0" style="strokeColor=#BAC8D3;fillColor=#5d7f99;fontSize=19;strokeWidth=2;fontFamily=Helvetica;html=1;labelBackgroundColor=none;fontColor=#FFFFFF;" vertex="1" parent="1">
          <mxGeometry x="150" y="1920" width="94" height="100.5" as="geometry" />
        </mxCell>
        <mxCell id="Xf4Q5aO3znnxccDLoNML-149" value="阶段" style="strokeColor=#BAC8D3;fillColor=#23445D;fontSize=24;strokeWidth=2;horizontal=0;fontFamily=Helvetica;html=1;fontColor=#FFFFFF;fontStyle=0" vertex="1" parent="1">
          <mxGeometry x="150" y="2023" width="100" height="997" as="geometry" />
        </mxCell>
        <mxCell id="Xf4Q5aO3znnxccDLoNML-150" value="" style="strokeColor=#FFFFFF;fillColor=#BAC8D3;fontSize=18;strokeWidth=2;fontFamily=Helvetica;html=1;opacity=60;" vertex="1" parent="1">
          <mxGeometry x="244" y="2023.5" width="646.6666666666666" height="100" as="geometry" />
        </mxCell>
        <mxCell id="Xf4Q5aO3znnxccDLoNML-151" value="" style="strokeColor=#FFFFFF;fillColor=#BAC8D3;fontSize=18;strokeWidth=2;fontFamily=Helvetica;html=1;opacity=90;" vertex="1" parent="1">
          <mxGeometry x="244" y="2123.5" width="646.6666666666666" height="100" as="geometry" />
        </mxCell>
        <mxCell id="Xf4Q5aO3znnxccDLoNML-152" value="" style="strokeColor=#FFFFFF;fillColor=#BAC8D3;fontSize=18;strokeWidth=2;fontFamily=Helvetica;html=1;opacity=60;" vertex="1" parent="1">
          <mxGeometry x="244" y="2223.5" width="646.6666666666666" height="100" as="geometry" />
        </mxCell>
        <mxCell id="Xf4Q5aO3znnxccDLoNML-153" value="" style="strokeColor=#FFFFFF;fillColor=#BAC8D3;fontSize=18;strokeWidth=2;fontFamily=Helvetica;html=1;opacity=90;" vertex="1" parent="1">
          <mxGeometry x="244" y="2323.5" width="646.6666666666666" height="100" as="geometry" />
        </mxCell>
        <mxCell id="Xf4Q5aO3znnxccDLoNML-154" value="" style="strokeColor=#FFFFFF;fillColor=#BAC8D3;fontSize=18;strokeWidth=2;fontFamily=Helvetica;html=1;opacity=60;" vertex="1" parent="1">
          <mxGeometry x="244" y="2423.5" width="646.6666666666666" height="100" as="geometry" />
        </mxCell>
        <mxCell id="Xf4Q5aO3znnxccDLoNML-155" value="" style="strokeColor=#FFFFFF;fillColor=#BAC8D3;fontSize=18;strokeWidth=2;fontFamily=Helvetica;html=1;opacity=90;" vertex="1" parent="1">
          <mxGeometry x="244" y="2523.5" width="646.6666666666666" height="100" as="geometry" />
        </mxCell>
        <mxCell id="Xf4Q5aO3znnxccDLoNML-156" value="" style="strokeColor=#FFFFFF;fillColor=#BAC8D3;fontSize=18;strokeWidth=2;fontFamily=Helvetica;html=1;opacity=60;" vertex="1" parent="1">
          <mxGeometry x="244" y="2623.5" width="646.6666666666666" height="100" as="geometry" />
        </mxCell>
        <mxCell id="Xf4Q5aO3znnxccDLoNML-157" value="" style="strokeColor=#FFFFFF;fillColor=#BAC8D3;fontSize=18;strokeWidth=2;fontFamily=Helvetica;html=1;opacity=60;" vertex="1" parent="1">
          <mxGeometry x="890.6666666666666" y="2023.5" width="647" height="100" as="geometry" />
        </mxCell>
        <mxCell id="Xf4Q5aO3znnxccDLoNML-158" value="" style="strokeColor=#FFFFFF;fillColor=#BAC8D3;fontSize=18;strokeWidth=2;fontFamily=Helvetica;html=1;opacity=90;" vertex="1" parent="1">
          <mxGeometry x="890.6666666666666" y="2123.5" width="646.6666666666666" height="100" as="geometry" />
        </mxCell>
        <mxCell id="Xf4Q5aO3znnxccDLoNML-159" value="" style="strokeColor=#FFFFFF;fillColor=#BAC8D3;fontSize=18;strokeWidth=2;fontFamily=Helvetica;html=1;opacity=60;" vertex="1" parent="1">
          <mxGeometry x="890.6666666666666" y="2223.5" width="646.6666666666666" height="100" as="geometry" />
        </mxCell>
        <mxCell id="Xf4Q5aO3znnxccDLoNML-160" value="" style="strokeColor=#FFFFFF;fillColor=#BAC8D3;fontSize=18;strokeWidth=2;fontFamily=Helvetica;html=1;opacity=90;" vertex="1" parent="1">
          <mxGeometry x="890.9966666666667" y="2323.25" width="646.6666666666666" height="100" as="geometry" />
        </mxCell>
        <mxCell id="Xf4Q5aO3znnxccDLoNML-161" value="" style="strokeColor=#FFFFFF;fillColor=#BAC8D3;fontSize=18;strokeWidth=2;fontFamily=Helvetica;html=1;opacity=90;" vertex="1" parent="1">
          <mxGeometry x="890.6666666666666" y="2523.5" width="646.6666666666666" height="100" as="geometry" />
        </mxCell>
        <mxCell id="Xf4Q5aO3znnxccDLoNML-162" value="" style="strokeColor=#FFFFFF;fillColor=#BAC8D3;fontSize=18;strokeWidth=2;fontFamily=Helvetica;html=1;opacity=60;fontStyle=4" vertex="1" parent="1">
          <mxGeometry x="890.6666666666666" y="2623.5" width="646.6666666666666" height="100" as="geometry" />
        </mxCell>
        <mxCell id="Xf4Q5aO3znnxccDLoNML-163" value="" style="strokeColor=#FFFFFF;fillColor=#BAC8D3;fontSize=18;strokeWidth=2;fontFamily=Helvetica;html=1;opacity=60;" vertex="1" parent="1">
          <mxGeometry x="1537.3333333333333" y="2023.5" width="647" height="100" as="geometry" />
        </mxCell>
        <mxCell id="Xf4Q5aO3znnxccDLoNML-164" value="" style="strokeColor=#FFFFFF;fillColor=#BAC8D3;fontSize=18;strokeWidth=2;fontFamily=Helvetica;html=1;opacity=90;" vertex="1" parent="1">
          <mxGeometry x="1537.3333333333333" y="2123.5" width="646.6666666666666" height="100" as="geometry" />
        </mxCell>
        <mxCell id="Xf4Q5aO3znnxccDLoNML-165" value="" style="strokeColor=#FFFFFF;fillColor=#BAC8D3;fontSize=18;strokeWidth=2;fontFamily=Helvetica;html=1;opacity=60;" vertex="1" parent="1">
          <mxGeometry x="1537.3333333333333" y="2223.5" width="646.6666666666666" height="100" as="geometry" />
        </mxCell>
        <mxCell id="Xf4Q5aO3znnxccDLoNML-166" value="" style="strokeColor=#FFFFFF;fillColor=#BAC8D3;fontSize=18;strokeWidth=2;fontFamily=Helvetica;html=1;opacity=90;" vertex="1" parent="1">
          <mxGeometry x="1537.3333333333333" y="2323.5" width="646.6666666666666" height="100" as="geometry" />
        </mxCell>
        <mxCell id="Xf4Q5aO3znnxccDLoNML-167" value="" style="strokeColor=#FFFFFF;fillColor=#BAC8D3;fontSize=18;strokeWidth=2;fontFamily=Helvetica;html=1;opacity=60;" vertex="1" parent="1">
          <mxGeometry x="1537.3333333333333" y="2423.5" width="646.6666666666666" height="100" as="geometry" />
        </mxCell>
        <mxCell id="Xf4Q5aO3znnxccDLoNML-168" value="" style="strokeColor=#FFFFFF;fillColor=#BAC8D3;fontSize=18;strokeWidth=2;fontFamily=Helvetica;html=1;opacity=90;" vertex="1" parent="1">
          <mxGeometry x="1537.3333333333333" y="2523.5" width="646.6666666666666" height="100" as="geometry" />
        </mxCell>
        <mxCell id="Xf4Q5aO3znnxccDLoNML-169" value="" style="strokeColor=#FFFFFF;fillColor=#BAC8D3;fontSize=18;strokeWidth=2;fontFamily=Helvetica;html=1;opacity=60;fontStyle=4" vertex="1" parent="1">
          <mxGeometry x="1537.6633333333334" y="2623.5" width="646.6666666666666" height="100" as="geometry" />
        </mxCell>
        <mxCell id="Xf4Q5aO3znnxccDLoNML-170" value="" style="rounded=1;fillColor=#23445D;strokeColor=none;strokeWidth=2;fontFamily=Helvetica;html=1;gradientColor=none;" vertex="1" parent="1">
          <mxGeometry x="410" y="2033" width="260" height="80" as="geometry" />
        </mxCell>
        <mxCell id="Xf4Q5aO3znnxccDLoNML-171" value="&lt;font style=&quot;font-size: 25px&quot;&gt;生成赎回明细文件&lt;/font&gt;" style="rounded=1;fillColor=#23445D;strokeColor=none;strokeWidth=2;fontFamily=Helvetica;html=1;gradientColor=none;" vertex="1" parent="1">
          <mxGeometry x="1030" y="2023" width="258.41" height="100" as="geometry" />
        </mxCell>
        <mxCell id="Xf4Q5aO3znnxccDLoNML-172" value="&lt;font style=&quot;font-size: 22px&quot;&gt;调用SI_ACC80006&lt;br&gt;记账&lt;/font&gt;" style="rounded=1;fillColor=#23445D;strokeColor=none;strokeWidth=2;gradientColor=none;fontFamily=Helvetica;html=1;" vertex="1" parent="1">
          <mxGeometry x="1720" y="2294" width="190" height="99" as="geometry" />
        </mxCell>
        <mxCell id="Xf4Q5aO3znnxccDLoNML-175" value="&lt;font style=&quot;font-size: 24px&quot;&gt;读取赎回文件并入库&lt;/font&gt;" style="rounded=1;fillColor=#23445D;strokeColor=none;strokeWidth=2;gradientColor=none;fontFamily=Helvetica;html=1;" vertex="1" parent="1">
          <mxGeometry x="1705" y="2028.5" width="230" height="90" as="geometry" />
        </mxCell>
        <mxCell id="Xf4Q5aO3znnxccDLoNML-176" value="&lt;font style=&quot;font-size: 23px&quot;&gt;查询赎回明细&lt;/font&gt;" style="rounded=1;fillColor=#23445D;strokeColor=none;strokeWidth=2;gradientColor=none;fontFamily=Helvetica;html=1;" vertex="1" parent="1">
          <mxGeometry x="1730" y="2173.5" width="180" height="69.5" as="geometry" />
        </mxCell>
        <mxCell id="Xf4Q5aO3znnxccDLoNML-177" value="" style="edgeStyle=elbowEdgeStyle;elbow=horizontal;strokeWidth=3;strokeColor=#0C343D;fontFamily=Helvetica;html=1;exitX=0.5;exitY=1;exitDx=0;exitDy=0;" edge="1" parent="1" source="Xf4Q5aO3znnxccDLoNML-175" target="Xf4Q5aO3znnxccDLoNML-176">
          <mxGeometry x="6.448979591836746" y="1923.5" width="131.97278911564624" height="100" as="geometry">
            <mxPoint x="1714" y="2074" as="sourcePoint" />
            <mxPoint x="138.421768707483" y="1923.5" as="targetPoint" />
          </mxGeometry>
        </mxCell>
        <mxCell id="Xf4Q5aO3znnxccDLoNML-178" value="" style="edgeStyle=elbowEdgeStyle;elbow=horizontal;strokeWidth=3;strokeColor=#0C343D;fontFamily=Helvetica;html=1;exitX=1;exitY=0.5;exitDx=0;exitDy=0;" edge="1" parent="1" source="Xf4Q5aO3znnxccDLoNML-171" target="Xf4Q5aO3znnxccDLoNML-175">
          <mxGeometry x="6.448979591836746" y="1923.5" width="131.97278911564624" height="100" as="geometry">
            <mxPoint x="6.448979591836746" y="2023.5" as="sourcePoint" />
            <mxPoint x="138.421768707483" y="1923.5" as="targetPoint" />
            <Array as="points">
              <mxPoint x="1520" y="2073" />
            </Array>
          </mxGeometry>
        </mxCell>
        <mxCell id="Xf4Q5aO3znnxccDLoNML-179" value="" style="group" vertex="1" connectable="0" parent="1">
          <mxGeometry x="244" y="1983.5" width="646.6666666666666" height="40" as="geometry" />
        </mxCell>
        <mxCell id="Xf4Q5aO3znnxccDLoNML-180" value="客户" style="strokeColor=#BAC8D3;fillColor=#5d7f99;fontSize=19;strokeWidth=2;fontFamily=Helvetica;html=1;labelBackgroundColor=none;fontColor=#FFFFFF;" vertex="1" parent="Xf4Q5aO3znnxccDLoNML-179">
          <mxGeometry width="646.6656362699642" height="40" as="geometry" />
        </mxCell>
        <mxCell id="Xf4Q5aO3znnxccDLoNML-181" value="代销理财系统" style="strokeColor=#BAC8D3;fillColor=#5d7f99;fontSize=19;strokeWidth=2;fontFamily=Helvetica;html=1;labelBackgroundColor=none;fontColor=#FFFFFF;" vertex="1" parent="Xf4Q5aO3znnxccDLoNML-179">
          <mxGeometry x="646.6656362699642" width="646.6656362699642" height="40" as="geometry" />
        </mxCell>
        <mxCell id="Xf4Q5aO3znnxccDLoNML-182" value="二类户系统" style="strokeColor=#BAC8D3;fillColor=#5d7f99;fontSize=19;strokeWidth=2;fontFamily=Helvetica;html=1;labelBackgroundColor=none;fontColor=#FFFFFF;" vertex="1" parent="Xf4Q5aO3znnxccDLoNML-179">
          <mxGeometry x="1293.3312725399282" width="646.6666666666666" height="40" as="geometry" />
        </mxCell>
        <mxCell id="Xf4Q5aO3znnxccDLoNML-183" value="&lt;span style=&quot;font-size: 24px&quot;&gt;发起赎回&lt;/span&gt;" style="text;html=1;strokeColor=none;fillColor=none;align=center;verticalAlign=middle;whiteSpace=wrap;rounded=0;" vertex="1" parent="1">
          <mxGeometry x="410" y="2048.5" width="260" height="50" as="geometry" />
        </mxCell>
        <mxCell id="Xf4Q5aO3znnxccDLoNML-184" value="" style="endArrow=classic;html=1;exitX=1;exitY=0.5;exitDx=0;exitDy=0;entryX=0;entryY=0.5;entryDx=0;entryDy=0;strokeWidth=3;" edge="1" parent="1" source="Xf4Q5aO3znnxccDLoNML-183" target="Xf4Q5aO3znnxccDLoNML-171">
          <mxGeometry width="50" height="50" relative="1" as="geometry">
            <mxPoint x="680" y="2103" as="sourcePoint" />
            <mxPoint x="730" y="2053" as="targetPoint" />
          </mxGeometry>
        </mxCell>
        <mxCell id="Xf4Q5aO3znnxccDLoNML-192" value="" style="endArrow=classic;html=1;strokeWidth=3;exitX=0.5;exitY=1;exitDx=0;exitDy=0;" edge="1" parent="1" source="Xf4Q5aO3znnxccDLoNML-176">
          <mxGeometry width="50" height="50" relative="1" as="geometry">
            <mxPoint x="1770" y="2344" as="sourcePoint" />
            <mxPoint x="1820" y="2294" as="targetPoint" />
          </mxGeometry>
        </mxCell>
        <mxCell id="Xf4Q5aO3znnxccDLoNML-193" value="" style="rounded=1;whiteSpace=wrap;html=1;fillColor=#23445D;" vertex="1" parent="1">
          <mxGeometry x="1720" y="2473" width="200" height="97" as="geometry" />
        </mxCell>
        <mxCell id="Xf4Q5aO3znnxccDLoNML-194" value="&lt;font style=&quot;font-size: 25px&quot;&gt;更新赎回明细状态&lt;br&gt;&lt;/font&gt;" style="text;html=1;strokeColor=none;fillColor=none;align=center;verticalAlign=middle;whiteSpace=wrap;rounded=0;" vertex="1" parent="1">
          <mxGeometry x="1740" y="2463" width="150" height="107" as="geometry" />
        </mxCell>
        <mxCell id="Xf4Q5aO3znnxccDLoNML-195" value="" style="endArrow=classic;html=1;strokeWidth=3;exitX=0.5;exitY=1;exitDx=0;exitDy=0;" edge="1" parent="1" source="Xf4Q5aO3znnxccDLoNML-172">
          <mxGeometry width="50" height="50" relative="1" as="geometry">
            <mxPoint x="1810" y="2463" as="sourcePoint" />
            <mxPoint x="1815" y="2473" as="targetPoint" />
          </mxGeometry>
        </mxCell>
        <mxCell id="Xf4Q5aO3znnxccDLoNML-196" value="" style="strokeColor=#FFFFFF;fillColor=#BAC8D3;fontSize=18;strokeWidth=2;fontFamily=Helvetica;html=1;opacity=90;" vertex="1" parent="1">
          <mxGeometry x="244" y="2523.5" width="646.6666666666666" height="100" as="geometry" />
        </mxCell>
        <mxCell id="Xf4Q5aO3znnxccDLoNML-202" value="" style="rhombus;whiteSpace=wrap;html=1;fillColor=#23445D;" vertex="1" parent="1">
          <mxGeometry x="1740" y="2637" width="150" height="176" as="geometry" />
        </mxCell>
        <mxCell id="Xf4Q5aO3znnxccDLoNML-203" value="&lt;font style=&quot;font-size: 25px&quot;&gt;是否可以写成功文件&lt;/font&gt;" style="text;html=1;strokeColor=none;fillColor=none;align=center;verticalAlign=middle;whiteSpace=wrap;rounded=0;" vertex="1" parent="1">
          <mxGeometry x="1770" y="2660" width="100" height="130" as="geometry" />
        </mxCell>
        <mxCell id="Xf4Q5aO3znnxccDLoNML-204" value="" style="endArrow=classic;html=1;exitX=0.5;exitY=1;exitDx=0;exitDy=0;entryX=0.5;entryY=0;entryDx=0;entryDy=0;strokeWidth=3;" edge="1" parent="1" source="Xf4Q5aO3znnxccDLoNML-194" target="Xf4Q5aO3znnxccDLoNML-202">
          <mxGeometry width="50" height="50" relative="1" as="geometry">
            <mxPoint x="1780" y="2630" as="sourcePoint" />
            <mxPoint x="1830" y="2580" as="targetPoint" />
          </mxGeometry>
        </mxCell>
        <mxCell id="Xf4Q5aO3znnxccDLoNML-262" value="" style="strokeColor=#FFFFFF;fillColor=#BAC8D3;fontSize=18;strokeWidth=2;fontFamily=Helvetica;html=1;opacity=90;" vertex="1" parent="1">
          <mxGeometry x="890.6566666666666" y="2923.5" width="646.6666666666666" height="100" as="geometry" />
        </mxCell>
        <mxCell id="Xf4Q5aO3znnxccDLoNML-263" value="" style="strokeColor=#FFFFFF;fillColor=#BAC8D3;fontSize=18;strokeWidth=2;fontFamily=Helvetica;html=1;opacity=90;" vertex="1" parent="1">
          <mxGeometry x="1537.4966666666667" y="2923.5" width="646.6666666666666" height="100" as="geometry" />
        </mxCell>
        <mxCell id="Xf4Q5aO3znnxccDLoNML-264" value="" style="strokeColor=#FFFFFF;fillColor=#BAC8D3;fontSize=18;strokeWidth=2;fontFamily=Helvetica;html=1;opacity=90;" vertex="1" parent="1">
          <mxGeometry x="243.99666666666667" y="2923.5" width="646.6666666666666" height="100" as="geometry" />
        </mxCell>
        <mxCell id="Xf4Q5aO3znnxccDLoNML-265" value="" style="rounded=1;whiteSpace=wrap;html=1;fillColor=#23445D;" vertex="1" parent="1">
          <mxGeometry x="2030" y="2700" width="120" height="60" as="geometry" />
        </mxCell>
        <mxCell id="Xf4Q5aO3znnxccDLoNML-266" value="&lt;font style=&quot;font-size: 35px&quot;&gt;跳过&lt;/font&gt;" style="text;html=1;strokeColor=none;fillColor=none;align=center;verticalAlign=middle;whiteSpace=wrap;rounded=0;" vertex="1" parent="1">
          <mxGeometry x="2030" y="2690" width="130" height="70" as="geometry" />
        </mxCell>
        <mxCell id="Xf4Q5aO3znnxccDLoNML-267" value="" style="endArrow=classic;html=1;exitX=1;exitY=0.5;exitDx=0;exitDy=0;entryX=0;entryY=0.5;entryDx=0;entryDy=0;strokeWidth=3;" edge="1" parent="1" source="Xf4Q5aO3znnxccDLoNML-202" target="Xf4Q5aO3znnxccDLoNML-266">
          <mxGeometry width="50" height="50" relative="1" as="geometry">
            <mxPoint x="1920" y="2820" as="sourcePoint" />
            <mxPoint x="1970" y="2770" as="targetPoint" />
          </mxGeometry>
        </mxCell>
        <mxCell id="Xf4Q5aO3znnxccDLoNML-268" value="" style="strokeColor=#FFFFFF;fillColor=#BAC8D3;fontSize=18;strokeWidth=2;fontFamily=Helvetica;html=1;opacity=60;" vertex="1" parent="1">
          <mxGeometry x="244" y="2823.5" width="646.6666666666666" height="100" as="geometry" />
        </mxCell>
        <mxCell id="Xf4Q5aO3znnxccDLoNML-269" value="" style="strokeColor=#FFFFFF;fillColor=#BAC8D3;fontSize=18;strokeWidth=2;fontFamily=Helvetica;html=1;opacity=60;" vertex="1" parent="1">
          <mxGeometry x="890.66" y="2823.5" width="646.6666666666666" height="100" as="geometry" />
        </mxCell>
        <mxCell id="Xf4Q5aO3znnxccDLoNML-270" value="" style="strokeColor=#FFFFFF;fillColor=#BAC8D3;fontSize=18;strokeWidth=2;fontFamily=Helvetica;html=1;opacity=60;" vertex="1" parent="1">
          <mxGeometry x="1540" y="2823.5" width="646.6666666666666" height="100" as="geometry" />
        </mxCell>
        <mxCell id="Xf4Q5aO3znnxccDLoNML-271" value="&lt;font style=&quot;font-size: 26px&quot;&gt;否&lt;/font&gt;" style="text;html=1;strokeColor=none;fillColor=none;align=center;verticalAlign=middle;whiteSpace=wrap;rounded=0;" vertex="1" parent="1">
          <mxGeometry x="1930" y="2680" width="60" height="40" as="geometry" />
        </mxCell>
        <mxCell id="Xf4Q5aO3znnxccDLoNML-272" value="&lt;font style=&quot;font-size: 26px&quot;&gt;是&lt;/font&gt;" style="text;html=1;strokeColor=none;fillColor=none;align=center;verticalAlign=middle;whiteSpace=wrap;rounded=0;" vertex="1" parent="1">
          <mxGeometry x="1860" y="2840" width="60" height="40" as="geometry" />
        </mxCell>
        <mxCell id="Xf4Q5aO3znnxccDLoNML-274" value="" style="rounded=1;whiteSpace=wrap;html=1;fillColor=#23445D;" vertex="1" parent="1">
          <mxGeometry x="1680" y="2923.5" width="270" height="90" as="geometry" />
        </mxCell>
        <mxCell id="Xf4Q5aO3znnxccDLoNML-275" value="&lt;font style=&quot;font-size: 26px&quot;&gt;写赎回成功文件&lt;/font&gt;" style="text;html=1;strokeColor=none;fillColor=none;align=center;verticalAlign=middle;whiteSpace=wrap;rounded=0;" vertex="1" parent="1">
          <mxGeometry x="1700" y="2940" width="230" height="60" as="geometry" />
        </mxCell>
        <mxCell id="Xf4Q5aO3znnxccDLoNML-276" value="" style="endArrow=classic;html=1;exitX=0.5;exitY=1;exitDx=0;exitDy=0;strokeWidth=3;" edge="1" parent="1" source="Xf4Q5aO3znnxccDLoNML-202">
          <mxGeometry width="50" height="50" relative="1" as="geometry">
            <mxPoint x="1780" y="2900" as="sourcePoint" />
            <mxPoint x="1815" y="2920" as="targetPoint" />
          </mxGeometry>
        </mxCell>
        <mxCell id="Xf4Q5aO3znnxccDLoNML-277" value="" style="rounded=1;whiteSpace=wrap;html=1;fillColor=#23445D;" vertex="1" parent="1">
          <mxGeometry x="985" y="2895" width="360" height="110" as="geometry" />
        </mxCell>
        <mxCell id="Xf4Q5aO3znnxccDLoNML-278" value="&lt;font style=&quot;font-size: 25px&quot;&gt;读取赎回成功文件&lt;/font&gt;" style="text;html=1;strokeColor=none;fillColor=none;align=center;verticalAlign=middle;whiteSpace=wrap;rounded=0;" vertex="1" parent="1">
          <mxGeometry x="980" y="2910" width="370" height="70" as="geometry" />
        </mxCell>
        <mxCell id="Xf4Q5aO3znnxccDLoNML-279" value="" style="endArrow=classic;html=1;exitX=1;exitY=0.5;exitDx=0;exitDy=0;entryX=0;entryY=0.25;entryDx=0;entryDy=0;strokeWidth=3;" edge="1" parent="1" source="Xf4Q5aO3znnxccDLoNML-278" target="Xf4Q5aO3znnxccDLoNML-274">
          <mxGeometry width="50" height="50" relative="1" as="geometry">
            <mxPoint x="1460" y="2990" as="sourcePoint" />
            <mxPoint x="1510" y="2940" as="targetPoint" />
          </mxGeometry>
        </mxCell>
      </root>
    </mxGraphModel>
  </diagram>
</mxfile>
